<svg width="116" height="116" viewBox="0 0 116 116" fill="none" xmlns="http://www.w3.org/2000/svg">
<g filter="url(#filter0_d_1_4)">
<rect x="8" y="4" width="100" height="100" fill="#C39A2E" fill-opacity="0.5" shape-rendering="crispEdges"/>
<rect x="8" y="4" width="100" height="100" stroke="#C49A2E" stroke-width="8" stroke-dasharray="14 14" shape-rendering="crispEdges"/>
</g>
<path d="M56.1875 40.6094C55.25 40.7656 54.3125 40.9219 53.375 41.0781C52.4375 41.2344 51.6042 41.3646 50.875 41.4688C49.9896 41.625 49.1562 41.7552 48.375 41.8594C47.5938 42.0156 46.7344 42.1458 45.7969 42.25C45.0156 42.3542 44.1042 42.4583 43.0625 42.5625C42.0208 42.6146 40.9271 42.6667 39.7812 42.7188C39.8854 42.3021 39.9896 41.7812 40.0938 41.1562C40.25 40.5312 40.3802 39.9323 40.4844 39.3594C40.6406 38.6823 40.7708 37.9792 40.875 37.25C41.0312 36.3125 41.1354 35.5312 41.1875 34.9062C41.2917 34.2812 41.3698 33.7344 41.4219 33.2656C41.526 32.7969 41.6562 32.3802 41.8125 32.0156C41.9688 31.651 42.2552 31.2865 42.6719 30.9219C43.2969 30.349 44.0781 29.724 45.0156 29.0469C46.0052 28.3177 47.1771 27.6927 48.5312 27.1719C49.9375 26.599 51.5521 26.1562 53.375 25.8438C55.25 25.5312 57.4115 25.4531 59.8594 25.6094C62.3073 25.7656 64.3385 26.026 65.9531 26.3906C67.5677 26.7552 68.9219 27.224 70.0156 27.7969C71.1094 28.3177 71.9948 28.9427 72.6719 29.6719C73.401 30.349 74.0781 31.1562 74.7031 32.0938C75.3281 33.0312 75.9271 34.1771 76.5 35.5312C77.125 36.8333 77.6458 38.2135 78.0625 39.6719C78.4792 41.1302 78.7135 42.5885 78.7656 44.0469C78.8698 45.5052 78.7396 46.8073 78.375 47.9531C77.9062 48.8906 76.9948 49.8281 75.6406 50.7656C74.4427 51.599 72.724 52.5365 70.4844 53.5781C68.2969 54.6198 65.25 55.6615 61.3438 56.7031C61.4479 57.6927 61.6042 58.5781 61.8125 59.3594C62.0208 60.1406 62.2292 60.8177 62.4375 61.3906C62.6458 62.0677 62.9062 62.6667 63.2188 63.1875C63.5312 63.6562 63.8177 64.1771 64.0781 64.75C64.3385 65.2188 64.599 65.7396 64.8594 66.3125C65.1719 66.8333 65.4583 67.3281 65.7188 67.7969L50.4062 69.6719C50.875 69.099 51.2396 68.5 51.5 67.875C51.8125 67.1979 52.0469 66.5729 52.2031 66C52.4115 65.3229 52.5156 64.6458 52.5156 63.9688C52.5156 63.2396 52.4635 62.3542 52.3594 61.3125C52.2552 60.4271 52.099 59.3073 51.8906 57.9531C51.7344 56.5469 51.4479 54.9062 51.0312 53.0312C53.4792 52.9271 55.4844 52.6667 57.0469 52.25C58.6615 51.7812 59.9635 51.3125 60.9531 50.8438C62.099 50.2708 62.9844 49.6719 63.6094 49.0469C64.0781 48.474 64.4688 47.5885 64.7812 46.3906C65.1458 45.1406 65.3802 43.7604 65.4844 42.25C65.6406 40.7396 65.6406 39.2031 65.4844 37.6406C65.3281 36.026 64.9635 34.5938 64.3906 33.3438C63.8177 32.0938 63.0104 31.1042 61.9688 30.375C60.9792 29.5938 59.7031 29.2552 58.1406 29.3594C55.7969 29.5677 54.026 30.0104 52.8281 30.6875C51.6302 31.3125 50.7969 32.0156 50.3281 32.7969C49.8594 33.5781 49.625 34.3594 49.625 35.1406C49.6771 35.9219 49.7552 36.4948 49.8594 36.8594C49.9115 37.224 50.1979 37.5885 50.7188 37.9531C51.1354 38.3177 51.7604 38.7083 52.5938 39.125C53.4792 39.5417 54.6771 40.0365 56.1875 40.6094ZM57.6719 72.4062C59.5469 72.1458 61.0052 72.4583 62.0469 73.3438C63.1406 74.2292 63.6615 75.4531 63.6094 77.0156C63.5573 77.7969 63.401 78.4219 63.1406 78.8906C62.8802 79.3594 62.5156 79.724 62.0469 79.9844C61.6302 80.1927 61.1094 80.375 60.4844 80.5312C59.9115 80.6354 59.2344 80.7396 58.4531 80.8438C57.6719 81 56.9167 80.974 56.1875 80.7656C55.4583 80.5052 54.8073 80.1406 54.2344 79.6719C53.6615 79.2031 53.1927 78.6823 52.8281 78.1094C52.5156 77.5365 52.3594 76.9635 52.3594 76.3906C52.3594 75.7656 52.5156 75.2448 52.8281 74.8281C53.1927 74.3594 53.6354 73.9688 54.1562 73.6562C54.7292 73.2917 55.3021 73.0312 55.875 72.875C56.5 72.6667 57.099 72.5104 57.6719 72.4062Z" fill="#C39A2E"/>
<defs>
<filter id="filter0_d_1_4" x="0" y="0" width="116" height="116" filterUnits="userSpaceOnUse" color-interpolation-filters="sRGB">
<feFlood flood-opacity="0" result="BackgroundImageFix"/>
<feColorMatrix in="SourceAlpha" type="matrix" values="0 0 0 0 0 0 0 0 0 0 0 0 0 0 0 0 0 0 127 0" result="hardAlpha"/>
<feOffset dy="4"/>
<feGaussianBlur stdDeviation="2"/>
<feComposite in2="hardAlpha" operator="out"/>
<feColorMatrix type="matrix" values="0 0 0 0 0 0 0 0 0 0 0 0 0 0 0 0 0 0 0.25 0"/>
<feBlend mode="normal" in2="BackgroundImageFix" result="effect1_dropShadow_1_4"/>
<feBlend mode="normal" in="SourceGraphic" in2="effect1_dropShadow_1_4" result="shape"/>
</filter>
</defs>
</svg>
