<svg width="635" height="147" viewBox="0 0 635 147" fill="none" xmlns="http://www.w3.org/2000/svg">
<path d="M1.17188 51.5703C3.51562 51.7656 5.56641 51.8828 7.32422 51.9219C9.12109 51.9609 10.6445 51.9805 11.8945 51.9805C13.3398 51.9805 14.5898 51.9414 15.6445 51.8633C16.7383 51.7461 18.1641 51.5898 19.9219 51.3945C21.4062 51.1992 23.3203 50.9453 25.6641 50.6328C28.0078 50.2812 30.8594 49.832 34.2188 49.2852C33.7891 49.9492 33.418 50.6523 33.1055 51.3945C32.832 52.0977 32.5977 52.7422 32.4023 53.3281C32.207 54.0312 32.0312 54.7148 31.875 55.3789C31.7578 56.1211 31.6211 57.0391 31.4648 58.1328C31.3086 59.0703 31.1133 60.2617 30.8789 61.707C30.6836 63.1133 30.4297 64.793 30.1172 66.7461C28.9453 63.6992 27.7539 61.3555 26.543 59.7148C25.3711 58.0742 24.2773 56.8633 23.2617 56.082C22.0898 55.1836 20.9766 54.6758 19.9219 54.5586C18.3984 54.5586 17.1484 54.8516 16.1719 55.4375C15.1953 56.0234 14.3945 56.7852 13.7695 57.7227C13.1836 58.6211 12.7344 59.6172 12.4219 60.7109C12.1094 61.7656 11.8945 62.8008 11.7773 63.8164C11.6602 64.793 11.582 65.6719 11.543 66.4531C11.5039 67.1953 11.4648 67.7031 11.4258 67.9766C12.793 67.8984 13.9453 67.8008 14.8828 67.6836C15.8203 67.5664 16.5625 67.4492 17.1094 67.332C17.7734 67.1758 18.3008 67.0195 18.6914 66.8633C19.2773 66.5508 19.8633 66.1797 20.4492 65.75C20.957 65.3594 21.4844 64.8906 22.0312 64.3437C22.6172 63.7969 23.125 63.1328 23.5547 62.3516C23.3203 63.7578 23.1055 64.9297 22.9102 65.8672C22.7539 66.8047 22.6172 67.5469 22.5 68.0937C22.3438 68.7578 22.2461 69.2656 22.207 69.6172C22.1289 69.9687 22.0312 70.457 21.9141 71.082C21.7969 71.6289 21.6602 72.332 21.5039 73.1914C21.3477 74.0508 21.1719 75.125 20.9766 76.4141C20.5078 75.5937 20.0195 74.9297 19.5117 74.4219C19.0039 73.875 18.5352 73.4453 18.1055 73.1328C17.5977 72.7812 17.1094 72.5078 16.6406 72.3125C16.1328 72.1562 15.5859 72 15 71.8437C14.4922 71.7266 13.8867 71.6094 13.1836 71.4922C12.5195 71.3359 11.7969 71.1992 11.0156 71.082C11.0938 73.1914 11.2109 75.0078 11.3672 76.5312C11.5234 78.0156 11.6602 79.2656 11.7773 80.2812C11.9336 81.4531 12.0898 82.4297 12.2461 83.2109C12.4414 83.9922 12.7539 84.832 13.1836 85.7305C13.5352 86.5117 14.0234 87.4102 14.6484 88.4258C15.3125 89.4023 16.1523 90.457 17.168 91.5898C16.3867 91.3945 15.5664 91.2578 14.707 91.1797C13.8477 91.1016 13.0859 91.043 12.4219 91.0039C11.6016 90.9648 10.8203 90.9648 10.0781 91.0039C9.29688 91.043 8.4375 91.1211 7.5 91.2383C6.71875 91.3164 5.82031 91.4336 4.80469 91.5898C3.78906 91.7461 2.71484 91.9219 1.58203 92.1172C2.24609 91.4531 2.79297 90.7891 3.22266 90.125C3.65234 89.4609 3.96484 88.875 4.16016 88.3672C4.39453 87.7812 4.55078 87.2148 4.62891 86.668C4.66797 86.1992 4.6875 85.1836 4.6875 83.6211C4.6875 82.0195 4.66797 80.1641 4.62891 78.0547C4.58984 75.9062 4.53125 73.6406 4.45312 71.2578C4.375 68.875 4.29688 66.6484 4.21875 64.5781C4.14062 62.4687 4.04297 60.6719 3.92578 59.1875C3.84766 57.7031 3.75 56.8047 3.63281 56.4922C3.47656 56.1016 3.30078 55.6523 3.10547 55.1445C2.79297 54.3242 2.14844 53.1328 1.17188 51.5703ZM45.8789 82.5664C46.9727 82.5664 47.9883 82.4492 48.9258 82.2148C49.707 82.0195 50.4492 81.707 51.1523 81.2773C51.8945 80.8086 52.3828 80.125 52.6172 79.2266C53.3984 79.3828 54.0625 79.5195 54.6094 79.6367C55.1562 79.7148 55.625 79.793 56.0156 79.8711C56.4453 79.9883 56.8164 80.0664 57.1289 80.1055C57.4414 80.1836 57.8125 80.2617 58.2422 80.3398C58.6328 80.418 59.1016 80.5156 59.6484 80.6328C60.2344 80.7109 60.918 80.8281 61.6992 80.9844C61.1133 80.9062 60.5078 80.9648 59.8828 81.1602C59.2969 81.3555 58.7305 81.5703 58.1836 81.8047C57.5586 82.0781 56.9727 82.4102 56.4258 82.8008C56.0742 83.0352 55.6641 83.3867 55.1953 83.8555C54.7656 84.3242 54.1406 84.7734 53.3203 85.2031C52.5 85.6328 51.4062 86.0039 50.0391 86.3164C48.7109 86.5898 46.9922 86.6875 44.8828 86.6094C42.3438 86.5312 40.2148 86.082 38.4961 85.2617C36.7773 84.4023 35.3906 83.3672 34.3359 82.1562C33.2812 80.9062 32.5195 79.5586 32.0508 78.1133C31.582 76.668 31.3281 75.3203 31.2891 74.0703C31.25 72.8203 31.6211 71.5117 32.4023 70.1445C33.1836 68.7773 34.2773 67.5273 35.6836 66.3945C37.1289 65.2617 38.8672 64.3437 40.8984 63.6406C42.9297 62.8984 45.1562 62.5273 47.5781 62.5273C48.9844 62.5273 50.2734 62.7031 51.4453 63.0547C52.6562 63.3672 53.75 63.7969 54.7266 64.3437C55.7422 64.8906 56.6211 65.5156 57.3633 66.2187C58.1055 66.8828 58.7305 67.5664 59.2383 68.2695C59.7461 69.0117 60.1758 69.793 60.5273 70.6133C60.8398 71.3164 61.0938 72.1172 61.2891 73.0156C61.4844 73.9141 61.543 74.832 61.4648 75.7695C58.4961 75.8477 56.0938 75.9062 54.2578 75.9453C52.4609 75.9844 51.0547 76.0039 50.0391 76.0039H47.4023H45.4102C44.707 76.0039 43.7891 76.0234 42.6562 76.0625C41.5234 76.1016 40.1367 76.1602 38.4961 76.2383C38.6914 77.8008 39.1797 79.0117 39.9609 79.8711C40.7812 80.6914 41.6406 81.3164 42.5391 81.7461C43.5547 82.2148 44.668 82.4883 45.8789 82.5664ZM40.6055 72.0195C41.8555 72.0977 42.8906 72.1562 43.7109 72.1953C44.5703 72.2344 45.2734 72.2734 45.8203 72.3125C46.4062 72.3516 46.875 72.3711 47.2266 72.3711H48.6914C49.668 72.3711 51.4844 72.3125 54.1406 72.1953C54.0234 70.4766 53.6523 69.168 53.0273 68.2695C52.4414 67.3711 51.8164 66.707 51.1523 66.2773C50.3711 65.8086 49.5117 65.5352 48.5742 65.457C46.0352 65.4961 44.1406 66.0234 42.8906 67.0391C41.6797 68.0547 40.918 69.7148 40.6055 72.0195ZM79.043 82.5664C80.1367 82.5664 81.1523 82.4492 82.0898 82.2148C82.8711 82.0195 83.6133 81.707 84.3164 81.2773C85.0586 80.8086 85.5469 80.125 85.7812 79.2266C86.5625 79.3828 87.2266 79.5195 87.7734 79.6367C88.3203 79.7148 88.7891 79.793 89.1797 79.8711C89.6094 79.9883 89.9805 80.0664 90.293 80.1055C90.6055 80.1836 90.9766 80.2617 91.4062 80.3398C91.7969 80.418 92.2656 80.5156 92.8125 80.6328C93.3984 80.7109 94.082 80.8281 94.8633 80.9844C94.2773 80.9062 93.6719 80.9648 93.0469 81.1602C92.4609 81.3555 91.8945 81.5703 91.3477 81.8047C90.7227 82.0781 90.1367 82.4102 89.5898 82.8008C89.2383 83.0352 88.8281 83.3867 88.3594 83.8555C87.9297 84.3242 87.3047 84.7734 86.4844 85.2031C85.6641 85.6328 84.5703 86.0039 83.2031 86.3164C81.875 86.5898 80.1562 86.6875 78.0469 86.6094C75.5078 86.5312 73.3789 86.082 71.6602 85.2617C69.9414 84.4023 68.5547 83.3672 67.5 82.1562C66.4453 80.9062 65.6836 79.5586 65.2148 78.1133C64.7461 76.668 64.4922 75.3203 64.4531 74.0703C64.4141 72.8203 64.7852 71.5117 65.5664 70.1445C66.3477 68.7773 67.4414 67.5273 68.8477 66.3945C70.293 65.2617 72.0312 64.3437 74.0625 63.6406C76.0938 62.8984 78.3203 62.5273 80.7422 62.5273C82.1484 62.5273 83.4375 62.7031 84.6094 63.0547C85.8203 63.3672 86.9141 63.7969 87.8906 64.3437C88.9062 64.8906 89.7852 65.5156 90.5273 66.2187C91.2695 66.8828 91.8945 67.5664 92.4023 68.2695C92.9102 69.0117 93.3398 69.793 93.6914 70.6133C94.0039 71.3164 94.2578 72.1172 94.4531 73.0156C94.6484 73.9141 94.707 74.832 94.6289 75.7695C91.6602 75.8477 89.2578 75.9062 87.4219 75.9453C85.625 75.9844 84.2188 76.0039 83.2031 76.0039H80.5664H78.5742C77.8711 76.0039 76.9531 76.0234 75.8203 76.0625C74.6875 76.1016 73.3008 76.1602 71.6602 76.2383C71.8555 77.8008 72.3438 79.0117 73.125 79.8711C73.9453 80.6914 74.8047 81.3164 75.7031 81.7461C76.7188 82.2148 77.832 82.4883 79.043 82.5664ZM73.7695 72.0195C75.0195 72.0977 76.0547 72.1562 76.875 72.1953C77.7344 72.2344 78.4375 72.2734 78.9844 72.3125C79.5703 72.3516 80.0391 72.3711 80.3906 72.3711H81.8555C82.832 72.3711 84.6484 72.3125 87.3047 72.1953C87.1875 70.4766 86.8164 69.168 86.1914 68.2695C85.6055 67.3711 84.9805 66.707 84.3164 66.2773C83.5352 65.8086 82.6758 65.5352 81.7383 65.457C79.1992 65.4961 77.3047 66.0234 76.0547 67.0391C74.8438 68.0547 74.082 69.7148 73.7695 72.0195ZM98.3203 93.6406C98.7109 93.0547 99.0234 92.5078 99.2578 92C99.4922 91.4922 99.6875 91.0625 99.8438 90.7109C100 90.2812 100.117 89.8906 100.195 89.5391C100.234 89.3047 100.254 88.6211 100.254 87.4883C100.254 86.3555 100.215 84.9297 100.137 83.2109C100.098 81.4922 100.039 79.5586 99.9609 77.4102C99.9219 75.2617 99.8438 73.0742 99.7266 70.8477C99.6484 68.6211 99.5508 66.4531 99.4336 64.3437C99.3555 62.2344 99.2773 60.3398 99.1992 58.6602C99.1211 56.9414 99.043 55.5352 98.9648 54.4414C98.8867 53.3477 98.8281 52.7227 98.7891 52.5664C98.7109 52.332 98.5742 52.0977 98.3789 51.8633C97.9883 51.3945 97.3242 50.9453 96.3867 50.5156C98.3789 50.0078 99.9023 49.5977 100.957 49.2852C101.582 49.1289 102.129 48.9727 102.598 48.8164C103.027 48.6602 103.457 48.5039 103.887 48.3477C104.238 48.1914 104.629 48.0156 105.059 47.8203C105.488 47.5859 105.879 47.332 106.23 47.0586C106.035 48.1914 105.879 49.2852 105.762 50.3398C105.645 51.3945 105.547 52.3711 105.469 53.2695C105.391 54.2852 105.352 55.2617 105.352 56.1992C105.156 58.1133 105.039 60.2031 105 62.4687C105 64.6953 105.02 66.9609 105.059 69.2656C105.098 71.5703 105.176 73.8164 105.293 76.0039C105.41 78.1914 105.527 80.1836 105.645 81.9805C105.801 83.7383 105.938 85.2422 106.055 86.4922C106.211 87.7031 106.328 88.4844 106.406 88.8359C106.562 89.4219 106.719 89.9883 106.875 90.5352C107.031 91.0039 107.207 91.4922 107.402 92C107.598 92.5469 107.832 92.9766 108.105 93.2891H102.422C101.914 93.2891 101.426 93.3086 100.957 93.3477C100.527 93.3867 100.078 93.4258 99.6094 93.4648C99.1406 93.5039 98.7109 93.5625 98.3203 93.6406ZM110.215 65.8086L120.996 65.9258C120.371 68.3086 119.902 70.3398 119.59 72.0195C119.316 73.6992 119.141 75.1055 119.062 76.2383C118.906 77.5273 118.867 78.6211 118.945 79.5195C119.062 80.3398 119.258 81.2187 119.531 82.1562C119.766 82.9375 120.117 83.8359 120.586 84.8516C121.055 85.8672 121.68 86.8828 122.461 87.8984C121.992 87.7422 121.484 87.625 120.938 87.5469C120.391 87.4687 119.883 87.4102 119.414 87.3711C118.867 87.332 118.32 87.332 117.773 87.3711C117.227 87.4102 116.621 87.4687 115.957 87.5469C115.41 87.625 114.746 87.7227 113.965 87.8398C113.184 87.957 112.363 88.1133 111.504 88.3086C112.09 86.5508 112.539 85.0273 112.852 83.7383C113.203 82.4492 113.457 81.375 113.613 80.5156C113.77 79.5 113.867 78.6797 113.906 78.0547C113.906 77.2734 113.906 76.3945 113.906 75.418C113.906 74.4023 113.906 73.4258 113.906 72.4883C113.906 71.5508 113.887 70.7305 113.848 70.0273C113.809 69.2852 113.73 68.8164 113.613 68.6211L113.027 68.0352C112.793 67.8398 112.441 67.5664 111.973 67.2148C111.543 66.8242 110.957 66.3555 110.215 65.8086ZM114.375 56.7852C115.195 56.3555 116.016 56.2383 116.836 56.4336C117.695 56.6289 118.359 57 118.828 57.5469C119.297 58.0937 119.453 58.7383 119.297 59.4805C119.18 60.2227 118.555 60.9453 117.422 61.6484C116.289 62.3125 115.293 62.5469 114.434 62.3516C113.574 62.1562 112.969 61.7461 112.617 61.1211C112.266 60.4961 112.207 59.7734 112.441 58.9531C112.676 58.0937 113.32 57.3711 114.375 56.7852ZM126.387 85.5547C126.66 84.2656 126.855 83.1328 126.973 82.1562C127.129 81.1406 127.246 80.3008 127.324 79.6367C127.402 78.8555 127.441 78.1914 127.441 77.6445C127.402 76.9805 127.363 76.1992 127.324 75.3008C127.324 74.3633 127.285 73.4453 127.207 72.5469C127.168 71.6094 127.109 70.7891 127.031 70.0859C126.953 69.3437 126.855 68.8164 126.738 68.5039C126.582 68.1914 126.367 67.8594 126.094 67.5078C125.547 66.8437 124.746 66.1992 123.691 65.5742C124.59 65.3789 125.352 65.2227 125.977 65.1055C126.641 64.9492 127.188 64.8125 127.617 64.6953C128.086 64.5391 128.496 64.4023 128.848 64.2852C129.16 64.168 129.531 64.0508 129.961 63.9336C130.312 63.8555 130.742 63.7578 131.25 63.6406C131.758 63.5234 132.344 63.3867 133.008 63.2305L132.832 68.5625C134.082 67.0781 135.352 65.9648 136.641 65.2227C137.93 64.4805 139.141 63.9531 140.273 63.6406C141.562 63.25 142.832 63.0547 144.082 63.0547C145.645 63.1328 147.09 63.3867 148.418 63.8164C149.785 64.2461 150.957 64.7539 151.934 65.3398C152.949 65.8867 153.77 66.4727 154.395 67.0977C155.02 67.7227 155.391 68.2695 155.508 68.7383C155.977 70.2617 156.094 71.668 155.859 72.957C155.625 74.207 155.312 75.4375 154.922 76.6484C154.57 77.8203 154.258 78.9922 153.984 80.1641C153.75 81.3359 153.848 82.6055 154.277 83.9727C154.434 84.3242 154.59 84.6758 154.746 85.0273C154.902 85.3398 155.098 85.6523 155.332 85.9648C155.566 86.2773 155.84 86.5312 156.152 86.7266C155.723 86.6875 155.293 86.668 154.863 86.668C154.434 86.6289 154.043 86.5898 153.691 86.5508C153.262 86.5117 152.871 86.4727 152.52 86.4336C152.129 86.3945 151.602 86.375 150.938 86.375C149.805 86.375 148.047 86.4336 145.664 86.5508C146.016 85.7305 146.289 85.0469 146.484 84.5C146.719 83.9141 146.914 83.4453 147.07 83.0937C147.227 82.6641 147.344 82.332 147.422 82.0977C147.891 80.9648 148.164 79.6758 148.242 78.2305C148.359 76.7852 148.262 75.3203 147.949 73.8359C147.832 73.3281 147.637 72.7227 147.363 72.0195C147.09 71.3164 146.719 70.6328 146.25 69.9687C145.82 69.3047 145.293 68.7383 144.668 68.2695C144.082 67.8008 143.398 67.5273 142.617 67.4492C141.836 67.3711 140.957 67.5664 139.98 68.0352C139.043 68.5039 138.027 69.3633 136.934 70.6133C136.113 71.668 135.469 72.957 135 74.4805C134.57 75.7695 134.277 77.3906 134.121 79.3437C133.965 81.2578 134.199 83.5039 134.824 86.082C134.277 86.0039 133.77 85.9648 133.301 85.9648C132.832 85.9258 132.441 85.8867 132.129 85.8477C131.738 85.8086 131.387 85.7695 131.074 85.7305C130.723 85.7305 130.332 85.7109 129.902 85.6719C129.512 85.6719 129.023 85.6719 128.438 85.6719C127.852 85.6328 127.168 85.5937 126.387 85.5547ZM187.383 67.1562C187.266 66.375 187.168 65.7305 187.09 65.2227C187.012 64.6758 186.934 64.2461 186.855 63.9336C186.777 63.543 186.719 63.25 186.68 63.0547C186.602 62.8594 186.504 62.6445 186.387 62.4102C186.309 62.2148 186.172 61.9805 185.977 61.707C185.82 61.4336 185.625 61.1211 185.391 60.7695C185.898 60.9258 186.406 61.0234 186.914 61.0625C187.461 61.1016 187.969 61.1406 188.438 61.1797C188.945 61.2187 189.473 61.2187 190.02 61.1797C190.566 61.1797 191.191 61.1602 191.895 61.1211C192.52 61.082 193.262 61.0625 194.121 61.0625C195.02 61.0234 196.035 60.9648 197.168 60.8867C196.504 61.043 195.938 61.3164 195.469 61.707C195.039 62.0586 194.668 62.4492 194.355 62.8789C194.004 63.3477 193.711 63.8555 193.477 64.4023C193.281 64.9102 193.164 65.8867 193.125 67.332C193.086 68.7383 193.086 70.418 193.125 72.3711C193.164 74.2852 193.203 76.3555 193.242 78.582C193.32 80.8086 193.359 82.9375 193.359 84.9687C193.398 87 193.398 88.8555 193.359 90.5352C193.32 92.1758 193.223 93.3867 193.066 94.168C192.52 96.6289 191.504 98.6211 190.02 100.145C188.535 101.707 186.582 102.547 184.16 102.664C181.23 102.781 178.906 102.508 177.188 101.844C175.508 101.18 174.199 100.359 173.262 99.3828C172.324 98.4453 171.621 97.4883 171.152 96.5117C170.684 95.5352 170.195 94.793 169.688 94.2852C169.219 93.8555 168.75 93.4453 168.281 93.0547C167.852 92.7422 167.402 92.4297 166.934 92.1172C166.504 91.8047 166.074 91.6094 165.645 91.5312C166.777 91.5703 167.793 91.5898 168.691 91.5898C169.59 91.5898 170.352 91.5898 170.977 91.5898C171.68 91.5898 172.305 91.5703 172.852 91.5312H174.727H180.059C179.277 91.7656 178.691 92.0195 178.301 92.293C177.91 92.6055 177.637 92.918 177.48 93.2305C177.324 93.582 177.246 93.9336 177.246 94.2852C177.402 95.2227 177.91 95.9062 178.77 96.3359C179.629 96.7656 180.801 97.0195 182.285 97.0977C183.73 97.1758 184.727 97.1367 185.273 96.9805C185.82 96.8633 186.25 96.6289 186.562 96.2773C187.188 95.3398 187.715 94.1289 188.145 92.6445C188.457 91.3945 188.672 89.7734 188.789 87.7812C188.945 85.75 188.77 83.2695 188.262 80.3398C187.012 82.0586 185.566 83.3477 183.926 84.207C182.285 85.0664 180.723 85.6914 179.238 86.082C177.48 86.5117 175.703 86.7266 173.906 86.7266C169.18 86.5312 165.645 85.4375 163.301 83.4453C160.957 81.4531 159.883 78.7773 160.078 75.418C160.195 73.7383 160.703 72.0586 161.602 70.3789C162.539 68.6992 163.75 67.1953 165.234 65.8672C166.758 64.5391 168.496 63.4844 170.449 62.7031C172.402 61.9219 174.434 61.5898 176.543 61.707C178.145 61.8633 179.648 62.1562 181.055 62.5859C182.266 62.9766 183.457 63.5234 184.629 64.2266C185.84 64.9297 186.758 65.9062 187.383 67.1562ZM168.75 73.0156C168.516 74.5391 168.613 75.9648 169.043 77.293C169.512 78.6211 170.156 79.7734 170.977 80.75C171.797 81.6875 172.715 82.4297 173.73 82.9766C174.746 83.4844 175.703 83.7187 176.602 83.6797C178.477 83.6406 180.098 82.8008 181.465 81.1602C182.832 79.4805 183.652 76.9805 183.926 73.6602C184.043 72.0195 183.828 70.6133 183.281 69.4414C182.773 68.2305 182.129 67.2539 181.348 66.5117C180.566 65.7695 179.746 65.2422 178.887 64.9297C178.027 64.6172 177.344 64.4805 176.836 64.5195C176.133 64.5977 175.352 64.8125 174.492 65.1641C173.672 65.4766 172.871 65.9648 172.09 66.6289C171.309 67.2539 170.605 68.0937 169.98 69.1484C169.395 70.2031 168.984 71.4922 168.75 73.0156ZM225.527 52.332C227.48 52.4492 229.121 52.5469 230.449 52.625C231.816 52.6641 232.949 52.7031 233.848 52.7422C234.863 52.7812 235.723 52.7812 236.426 52.7422C237.129 52.7031 238.086 52.6055 239.297 52.4492C240.312 52.332 241.66 52.1562 243.34 51.9219C245.059 51.6484 247.188 51.2969 249.727 50.8672C248.828 51.7656 248.125 52.5859 247.617 53.3281C247.148 54.0312 246.777 54.6367 246.504 55.1445C246.191 55.7695 245.977 56.2969 245.859 56.7266C245.781 57.1172 245.859 58.0937 246.094 59.6562C246.328 61.2187 246.66 63.0742 247.09 65.2227C247.52 67.332 247.988 69.5977 248.496 72.0195C249.004 74.4023 249.512 76.6484 250.02 78.7578C250.527 80.8281 250.977 82.6055 251.367 84.0898C251.797 85.5352 252.109 86.3945 252.305 86.668C252.891 87.4883 253.262 88.0352 253.418 88.3086C253.574 88.543 253.848 88.7578 254.238 88.9531C254.395 89.0312 254.648 89.1484 255 89.3047C255.312 89.4609 255.723 89.6562 256.23 89.8906C256.777 90.125 257.461 90.3984 258.281 90.7109C256.758 90.7891 255.449 90.8477 254.355 90.8867C253.262 90.8867 252.363 90.9062 251.66 90.9453C250.84 90.9844 250.137 91.0234 249.551 91.0625C248.965 91.0625 248.262 91.1016 247.441 91.1797C246.738 91.2578 245.82 91.3359 244.688 91.4141C243.594 91.4922 242.305 91.5703 240.82 91.6484C241.602 91.1016 242.227 90.6133 242.695 90.1836C243.203 89.7148 243.594 89.3242 243.867 89.0117C244.18 88.6211 244.395 88.2695 244.512 87.957C244.59 87.6055 244.648 87.0781 244.688 86.375C244.727 85.75 244.727 84.9297 244.688 83.9141C244.648 82.8594 244.551 81.4922 244.395 79.8125L228.984 81.3945C228.594 82.0586 228.301 82.6445 228.105 83.1523C227.91 83.6211 227.773 84.0312 227.695 84.3828C227.578 84.8125 227.539 85.1641 227.578 85.4375C227.656 85.75 227.793 86.1211 227.988 86.5508C228.184 86.9414 228.457 87.4102 228.809 87.957C229.199 88.4648 229.766 89.0703 230.508 89.7734C229.531 89.7344 228.535 89.7148 227.52 89.7148C226.504 89.7148 225.566 89.7344 224.707 89.7734C223.691 89.8125 222.695 89.8516 221.719 89.8906C220.742 89.9297 219.629 89.9883 218.379 90.0664C217.324 90.1445 216.094 90.2422 214.688 90.3594C213.242 90.4375 211.699 90.5547 210.059 90.7109C211.074 90.2422 211.934 89.7734 212.637 89.3047C213.34 88.7969 213.926 88.3281 214.395 87.8984C214.941 87.4297 215.41 86.9805 215.801 86.5508C216.074 86.1602 216.621 85.2617 217.441 83.8555C218.262 82.4102 219.18 80.7109 220.195 78.7578C221.25 76.8047 222.344 74.7148 223.477 72.4883C224.648 70.2617 225.703 68.1719 226.641 66.2187C227.578 64.2266 228.34 62.5078 228.926 61.0625C229.512 59.6172 229.805 58.6797 229.805 58.25C229.727 57.7422 229.531 57.1758 229.219 56.5508C228.945 56.0039 228.516 55.3789 227.93 54.6758C227.383 53.9727 226.582 53.1914 225.527 52.332ZM243.691 75.4766C243.457 74.1094 243.242 72.9375 243.047 71.9609C242.852 70.9453 242.695 70.1055 242.578 69.4414C242.422 68.6602 242.305 67.9766 242.227 67.3906C242.109 66.8437 241.973 66.1406 241.816 65.2812C241.66 64.5391 241.465 63.6211 241.23 62.5273C241.035 61.3945 240.781 60.0469 240.469 58.4844C238.242 62.9375 236.504 66.3945 235.254 68.8555C234.043 71.2773 233.164 73.0547 232.617 74.1875C231.953 75.5156 231.582 76.2969 231.504 76.5312L243.691 75.4766ZM283.711 47.1172C284.453 47.1562 285.254 47.1758 286.113 47.1758C286.855 47.1758 287.695 47.1953 288.633 47.2344C289.609 47.2344 290.625 47.1953 291.68 47.1172C290.742 47.5469 289.922 48.1719 289.219 48.9922C288.516 49.8125 287.949 50.6328 287.52 51.4531C286.973 52.4297 286.523 53.4453 286.172 54.5C285.977 55.125 285.82 56.2383 285.703 57.8398C285.586 59.4023 285.488 61.2383 285.41 63.3477C285.371 65.457 285.352 67.6836 285.352 70.0273C285.352 72.3711 285.371 74.6172 285.41 76.7656C285.449 78.875 285.508 80.75 285.586 82.3906C285.664 84.0312 285.762 85.1836 285.879 85.8477C286.035 86.6289 286.23 87.3711 286.465 88.0742C286.66 88.6992 286.914 89.3437 287.227 90.0078C287.539 90.6328 287.93 91.1406 288.398 91.5312L282.422 94.2266C282.109 93.7969 281.855 93.3477 281.66 92.8789C281.465 92.4492 281.309 92.0586 281.191 91.707C281.035 91.2773 280.938 90.8867 280.898 90.5352C280.82 90.0664 280.742 89.5586 280.664 89.0117C280.586 88.4258 280.488 87.8789 280.371 87.3711C280.293 86.8242 280.234 86.375 280.195 86.0234C280.156 85.6719 280.156 85.457 280.195 85.3789C280.234 85.3008 280 85.6523 279.492 86.4336C278.984 87.1758 278.223 88.0547 277.207 89.0703C276.23 90.0469 275.02 91.0039 273.574 91.9414C272.129 92.8398 270.508 93.4062 268.711 93.6406C266.875 93.875 265.176 93.5234 263.613 92.5859C262.09 91.6484 260.781 90.3398 259.688 88.6602C258.594 86.9414 257.754 84.9687 257.168 82.7422C256.621 80.4766 256.406 78.1719 256.523 75.8281C256.602 74.2656 256.953 72.8789 257.578 71.668C258.203 70.418 258.984 69.3437 259.922 68.4453C260.898 67.5078 261.953 66.7266 263.086 66.1016C264.258 65.4375 265.391 64.8906 266.484 64.4609C267.617 64.0312 268.672 63.7187 269.648 63.5234C270.625 63.3281 271.406 63.1914 271.992 63.1133C272.695 63.0742 273.496 63.1914 274.395 63.4648C275.176 63.6992 276.074 64.0898 277.09 64.6367C278.145 65.1836 279.316 66.0039 280.605 67.0977C280.371 63.1914 280.156 60.0664 279.961 57.7227C279.766 55.3398 279.57 53.5234 279.375 52.2734C279.18 50.7891 279.004 49.7734 278.848 49.2266C278.652 48.8359 278.398 48.4453 278.086 48.0547C277.812 47.7422 277.461 47.4297 277.031 47.1172C276.641 46.7656 276.172 46.4922 275.625 46.2969C276.641 46.4922 277.617 46.6289 278.555 46.707C279.492 46.7852 280.352 46.8633 281.133 46.9414C282.031 47.0195 282.891 47.0781 283.711 47.1172ZM269.004 68.9727C268.262 69.2461 267.656 69.7148 267.188 70.3789C266.758 71.043 266.406 71.8437 266.133 72.7812C265.859 73.6797 265.664 74.6562 265.547 75.7109C265.469 76.7266 265.41 77.7227 265.371 78.6992C265.371 79.6367 265.371 80.4961 265.371 81.2773C265.371 82.0586 265.371 82.6445 265.371 83.0352C265.371 83.2695 265.41 83.6992 265.488 84.3242C265.605 84.9102 265.84 85.5352 266.191 86.1992C266.543 86.8242 267.031 87.3906 267.656 87.8984C268.32 88.4062 269.199 88.6602 270.293 88.6602C271.191 88.582 272.148 88.2695 273.164 87.7227C274.062 87.2539 275.078 86.5117 276.211 85.4961C277.383 84.4414 278.633 82.9375 279.961 80.9844C279.883 79.7344 279.824 78.6992 279.785 77.8789C279.785 77.0586 279.766 76.3945 279.727 75.8867C279.688 75.3008 279.668 74.832 279.668 74.4805V73.6016C279.668 73.3672 279.668 73.1133 279.668 72.8398C279.668 72.5664 279.688 72.3125 279.727 72.0781C278.633 71.2969 277.656 70.6328 276.797 70.0859C275.977 69.5 275.156 69.0703 274.336 68.7969C273.555 68.4844 272.734 68.3477 271.875 68.3867C271.055 68.3867 270.098 68.582 269.004 68.9727ZM286.582 59.7148C287.246 59.832 287.93 59.9297 288.633 60.0078C289.297 60.0469 289.902 60.0859 290.449 60.125C291.074 60.1641 291.68 60.1836 292.266 60.1836C292.852 60.1836 293.516 60.1641 294.258 60.125C294.883 60.0859 295.625 60.0273 296.484 59.9492C297.383 59.8711 298.359 59.7539 299.414 59.5977C298.789 59.9492 298.301 60.3203 297.949 60.7109C297.598 61.1016 297.324 61.4531 297.129 61.7656C296.895 62.1562 296.738 62.5078 296.66 62.8203C296.582 63.1328 296.602 63.7773 296.719 64.7539C296.836 65.7305 296.992 66.8633 297.188 68.1523C297.422 69.4414 297.676 70.7891 297.949 72.1953C298.223 73.6016 298.496 74.8906 298.77 76.0625C299.082 77.2344 299.355 78.2109 299.59 78.9922C299.863 79.7734 300.078 80.1445 300.234 80.1055C300.391 80.1055 300.625 79.7148 300.938 78.9336C301.289 78.1523 301.68 77.1953 302.109 76.0625C302.539 74.8906 302.988 73.6211 303.457 72.2539C303.926 70.8477 304.336 69.5391 304.688 68.3281C305.039 67.1172 305.312 66.1016 305.508 65.2812C305.742 64.4219 305.84 63.9141 305.801 63.7578C305.684 63.6016 305.547 63.3867 305.391 63.1133C305.117 62.6836 304.512 61.9414 303.574 60.8867C304.707 60.9648 305.684 61.043 306.504 61.1211C307.324 61.1602 307.988 61.2187 308.496 61.2969C309.082 61.375 309.551 61.4336 309.902 61.4727C310.254 61.5117 310.762 61.5117 311.426 61.4727C311.973 61.4727 312.695 61.4531 313.594 61.4141C314.531 61.3359 315.684 61.2187 317.051 61.0625C316.035 61.6484 315.195 62.1758 314.531 62.6445C313.906 63.0742 313.418 63.4453 313.066 63.7578C312.637 64.1484 312.324 64.4805 312.129 64.7539C311.855 65.2617 311.367 66.4727 310.664 68.3867C310.352 69.207 309.961 70.2227 309.492 71.4336C309.062 72.6445 308.535 74.1094 307.91 75.8281C307.324 77.5078 306.621 79.4805 305.801 81.7461C304.98 84.0117 304.062 86.6094 303.047 89.5391L297.363 90.125C296.621 87.6641 296.016 85.6133 295.547 83.9727C295.117 82.293 294.766 80.9453 294.492 79.9297C294.18 78.7578 293.945 77.8398 293.789 77.1758C293.594 76.4336 293.359 75.3594 293.086 73.9531C292.812 72.5078 292.539 71.043 292.266 69.5586C291.992 68.0742 291.719 66.7461 291.445 65.5742C291.172 64.3633 290.957 63.6211 290.801 63.3477C290.645 63.1523 290.371 62.8789 289.98 62.5273C289.668 62.2148 289.238 61.8437 288.691 61.4141C288.145 60.9453 287.441 60.3789 286.582 59.7148ZM329.297 82.5664C330.391 82.5664 331.406 82.4492 332.344 82.2148C333.125 82.0195 333.867 81.707 334.57 81.2773C335.312 80.8086 335.801 80.125 336.035 79.2266C336.816 79.3828 337.48 79.5195 338.027 79.6367C338.574 79.7148 339.043 79.793 339.434 79.8711C339.863 79.9883 340.234 80.0664 340.547 80.1055C340.859 80.1836 341.23 80.2617 341.66 80.3398C342.051 80.418 342.52 80.5156 343.066 80.6328C343.652 80.7109 344.336 80.8281 345.117 80.9844C344.531 80.9062 343.926 80.9648 343.301 81.1602C342.715 81.3555 342.148 81.5703 341.602 81.8047C340.977 82.0781 340.391 82.4102 339.844 82.8008C339.492 83.0352 339.082 83.3867 338.613 83.8555C338.184 84.3242 337.559 84.7734 336.738 85.2031C335.918 85.6328 334.824 86.0039 333.457 86.3164C332.129 86.5898 330.41 86.6875 328.301 86.6094C325.762 86.5312 323.633 86.082 321.914 85.2617C320.195 84.4023 318.809 83.3672 317.754 82.1562C316.699 80.9062 315.938 79.5586 315.469 78.1133C315 76.668 314.746 75.3203 314.707 74.0703C314.668 72.8203 315.039 71.5117 315.82 70.1445C316.602 68.7773 317.695 67.5273 319.102 66.3945C320.547 65.2617 322.285 64.3437 324.316 63.6406C326.348 62.8984 328.574 62.5273 330.996 62.5273C332.402 62.5273 333.691 62.7031 334.863 63.0547C336.074 63.3672 337.168 63.7969 338.145 64.3437C339.16 64.8906 340.039 65.5156 340.781 66.2187C341.523 66.8828 342.148 67.5664 342.656 68.2695C343.164 69.0117 343.594 69.793 343.945 70.6133C344.258 71.3164 344.512 72.1172 344.707 73.0156C344.902 73.9141 344.961 74.832 344.883 75.7695C341.914 75.8477 339.512 75.9062 337.676 75.9453C335.879 75.9844 334.473 76.0039 333.457 76.0039H330.82H328.828C328.125 76.0039 327.207 76.0234 326.074 76.0625C324.941 76.1016 323.555 76.1602 321.914 76.2383C322.109 77.8008 322.598 79.0117 323.379 79.8711C324.199 80.6914 325.059 81.3164 325.957 81.7461C326.973 82.2148 328.086 82.4883 329.297 82.5664ZM324.023 72.0195C325.273 72.0977 326.309 72.1562 327.129 72.1953C327.988 72.2344 328.691 72.2734 329.238 72.3125C329.824 72.3516 330.293 72.3711 330.645 72.3711H332.109C333.086 72.3711 334.902 72.3125 337.559 72.1953C337.441 70.4766 337.07 69.168 336.445 68.2695C335.859 67.3711 335.234 66.707 334.57 66.2773C333.789 65.8086 332.93 65.5352 331.992 65.457C329.453 65.4961 327.559 66.0234 326.309 67.0391C325.098 68.0547 324.336 69.7148 324.023 72.0195ZM349.043 85.5547C349.316 84.2656 349.512 83.1328 349.629 82.1562C349.785 81.1406 349.902 80.3008 349.98 79.6367C350.059 78.8555 350.098 78.1914 350.098 77.6445C350.059 76.9805 350.02 76.1992 349.98 75.3008C349.98 74.3633 349.941 73.4453 349.863 72.5469C349.824 71.6094 349.766 70.7891 349.688 70.0859C349.609 69.3437 349.512 68.8164 349.395 68.5039C349.238 68.1914 349.023 67.8594 348.75 67.5078C348.203 66.8437 347.402 66.1992 346.348 65.5742C347.246 65.3789 348.008 65.2227 348.633 65.1055C349.297 64.9492 349.844 64.8125 350.273 64.6953C350.742 64.5391 351.152 64.4023 351.504 64.2852C351.816 64.168 352.188 64.0508 352.617 63.9336C352.969 63.8555 353.398 63.7578 353.906 63.6406C354.414 63.5234 355 63.3867 355.664 63.2305L355.488 68.5625C356.738 67.0781 358.008 65.9648 359.297 65.2227C360.586 64.4805 361.797 63.9531 362.93 63.6406C364.219 63.25 365.488 63.0547 366.738 63.0547C368.301 63.1328 369.746 63.3867 371.074 63.8164C372.441 64.2461 373.613 64.7539 374.59 65.3398C375.605 65.8867 376.426 66.4727 377.051 67.0977C377.676 67.7227 378.047 68.2695 378.164 68.7383C378.633 70.2617 378.75 71.668 378.516 72.957C378.281 74.207 377.969 75.4375 377.578 76.6484C377.227 77.8203 376.914 78.9922 376.641 80.1641C376.406 81.3359 376.504 82.6055 376.934 83.9727C377.09 84.3242 377.246 84.6758 377.402 85.0273C377.559 85.3398 377.754 85.6523 377.988 85.9648C378.223 86.2773 378.496 86.5312 378.809 86.7266C378.379 86.6875 377.949 86.668 377.52 86.668C377.09 86.6289 376.699 86.5898 376.348 86.5508C375.918 86.5117 375.527 86.4727 375.176 86.4336C374.785 86.3945 374.258 86.375 373.594 86.375C372.461 86.375 370.703 86.4336 368.32 86.5508C368.672 85.7305 368.945 85.0469 369.141 84.5C369.375 83.9141 369.57 83.4453 369.727 83.0937C369.883 82.6641 370 82.332 370.078 82.0977C370.547 80.9648 370.82 79.6758 370.898 78.2305C371.016 76.7852 370.918 75.3203 370.605 73.8359C370.488 73.3281 370.293 72.7227 370.02 72.0195C369.746 71.3164 369.375 70.6328 368.906 69.9687C368.477 69.3047 367.949 68.7383 367.324 68.2695C366.738 67.8008 366.055 67.5273 365.273 67.4492C364.492 67.3711 363.613 67.5664 362.637 68.0352C361.699 68.5039 360.684 69.3633 359.59 70.6133C358.77 71.668 358.125 72.957 357.656 74.4805C357.227 75.7695 356.934 77.3906 356.777 79.3437C356.621 81.2578 356.855 83.5039 357.48 86.082C356.934 86.0039 356.426 85.9648 355.957 85.9648C355.488 85.9258 355.098 85.8867 354.785 85.8477C354.395 85.8086 354.043 85.7695 353.73 85.7305C353.379 85.7305 352.988 85.7109 352.559 85.6719C352.168 85.6719 351.68 85.6719 351.094 85.6719C350.508 85.6328 349.824 85.5937 349.043 85.5547ZM381.68 55.0859C382.852 55.2031 383.828 55.3008 384.609 55.3789C385.43 55.457 386.094 55.5156 386.602 55.5547C387.188 55.5937 387.656 55.6133 388.008 55.6133C388.359 55.6523 388.828 55.6523 389.414 55.6133C389.922 55.5742 390.586 55.5352 391.406 55.4961C392.227 55.418 393.262 55.3008 394.512 55.1445C394.238 55.5352 394.023 55.8867 393.867 56.1992C393.711 56.4727 393.574 56.7266 393.457 56.9609L393.105 57.6641C393.027 57.8984 392.949 58.1328 392.871 58.3672C392.793 58.5625 392.715 58.7969 392.637 59.0703C392.598 59.3437 392.559 59.6367 392.52 59.9492H401.543L400.723 64.6953L392.461 64.2266C392.266 66.2187 392.129 67.7617 392.051 68.8555C391.973 69.9492 391.895 70.75 391.816 71.2578L391.699 72.3125C391.582 73.7969 391.465 75.418 391.348 77.1758C391.23 78.8945 391.191 80.4961 391.23 81.9805C391.27 83.4648 391.406 84.7148 391.641 85.7305C391.875 86.707 392.285 87.1953 392.871 87.1953C393.457 87.1953 394.004 87.0391 394.512 86.7266C395.02 86.4141 395.449 86.043 395.801 85.6133C396.191 85.1836 396.484 84.7539 396.68 84.3242C396.875 83.8555 396.973 83.5039 396.973 83.2695C396.973 83.0352 396.914 82.7617 396.797 82.4492C396.602 81.8633 396.25 81.1211 395.742 80.2227C396.875 80.4961 397.871 80.7695 398.73 81.043C399.16 81.1992 399.551 81.3555 399.902 81.5117C400.293 81.668 400.742 81.8437 401.25 82.0391C401.68 82.2344 402.227 82.4687 402.891 82.7422C403.555 83.0156 404.336 83.3477 405.234 83.7383C404.375 83.8945 403.75 84.1484 403.359 84.5C403.125 84.6562 402.949 84.832 402.832 85.0273C402.559 85.457 402.246 86.043 401.895 86.7852C401.543 87.4883 401.016 88.1914 400.312 88.8945C399.609 89.5977 398.652 90.2227 397.441 90.7695C396.27 91.3164 394.688 91.6289 392.695 91.707C390.625 91.7852 389.043 91.4336 387.949 90.6523C386.895 89.8711 386.113 88.9727 385.605 87.957C385.137 86.9023 384.863 85.8672 384.785 84.8516C384.707 83.8359 384.648 83.1523 384.609 82.8008C384.57 82.4492 384.57 81.5703 384.609 80.1641C384.648 78.7578 384.707 77.2148 384.785 75.5352C384.863 73.8164 384.941 72.1758 385.02 70.6133C385.098 69.0117 385.137 67.8398 385.137 67.0977C385.137 66.707 385.156 66.2969 385.195 65.8672C385.195 65.5156 385.195 65.1445 385.195 64.7539C385.234 64.3242 385.254 63.9141 385.254 63.5234L376.758 63.4648L376.406 60.125L384.961 60.3594C384.883 59.9297 384.785 59.5391 384.668 59.1875C384.59 58.7969 384.512 58.4844 384.434 58.25C384.316 57.9766 384.199 57.7422 384.082 57.5469C383.926 57.3516 383.75 57.1367 383.555 56.9023C383.359 56.707 383.105 56.4531 382.793 56.1406C382.48 55.8281 382.109 55.4766 381.68 55.0859ZM402.832 70.4961C404.355 70.5352 405.742 70.5547 406.992 70.5547C408.281 70.5547 409.395 70.5547 410.332 70.5547C411.426 70.5547 412.422 70.5352 413.32 70.4961C414.258 70.4961 415.449 70.457 416.895 70.3789C418.145 70.3398 419.707 70.2812 421.582 70.2031C423.496 70.125 425.82 70.0273 428.555 69.9102L428.262 75.8867C426.074 75.7305 424.238 75.6328 422.754 75.5937C421.309 75.5156 420.137 75.457 419.238 75.418C418.184 75.3789 417.324 75.3789 416.66 75.418C415.996 75.457 415.059 75.5156 413.848 75.5937C412.832 75.6719 411.445 75.7695 409.688 75.8867C407.969 75.9648 405.781 76.1016 403.125 76.2969L402.832 70.4961ZM430.605 65.0469C431.621 65.2422 432.5 65.3984 433.242 65.5156C434.023 65.5937 434.688 65.6719 435.234 65.75C435.859 65.8281 436.406 65.8867 436.875 65.9258C437.344 65.9648 437.891 66.0039 438.516 66.043C439.57 66.082 441.055 66.082 442.969 66.043C441.836 65.9648 440.938 66.2578 440.273 66.9219C439.648 67.5469 439.18 68.2695 438.867 69.0898C438.477 70.0664 438.262 71.1992 438.223 72.4883C438.145 74.207 438.184 75.7695 438.34 77.1758C438.535 78.543 438.867 79.7148 439.336 80.6914C439.844 81.6289 440.508 82.332 441.328 82.8008C442.148 83.2305 443.203 83.3477 444.492 83.1523C445.781 82.957 446.758 82.5078 447.422 81.8047C448.125 81.0625 448.633 80.1641 448.945 79.1094C449.258 78.0156 449.434 76.7852 449.473 75.418C449.551 74.0508 449.609 72.625 449.648 71.1406C449.648 69.6562 449.629 68.6016 449.59 67.9766C449.59 67.3125 449.57 66.8828 449.531 66.6875C449.492 66.4922 449.434 66.4141 449.355 66.4531C449.277 66.4531 449.18 66.3555 449.062 66.1602C448.984 66.0039 448.867 65.8477 448.711 65.6914C448.594 65.5352 448.438 65.3594 448.242 65.1641C448.047 64.9297 447.832 64.6953 447.598 64.4609C448.613 64.5 449.512 64.5391 450.293 64.5781C451.113 64.5781 451.797 64.5977 452.344 64.6367C452.969 64.6758 453.516 64.7148 453.984 64.7539C454.414 64.793 454.98 64.8516 455.684 64.9297C456.27 65.0078 457.031 65.0859 457.969 65.1641C458.906 65.2422 460.02 65.3594 461.309 65.5156C460.41 65.7109 459.688 66.0039 459.141 66.3945C458.594 66.7852 458.164 67.1758 457.852 67.5664C457.5 67.9961 457.246 68.4648 457.09 68.9727C456.973 69.6367 456.973 70.6523 457.09 72.0195C457.168 73.2305 457.363 74.8906 457.676 77C457.988 79.1094 458.477 81.8828 459.141 85.3203L454.512 88.0742L453.574 80.2812C452.441 82.1953 451.23 83.6797 449.941 84.7344C448.691 85.75 447.52 86.4922 446.426 86.9609C445.137 87.5078 443.887 87.8203 442.676 87.8984C441.074 87.8984 439.688 87.8008 438.516 87.6055C437.383 87.3711 436.406 87.0781 435.586 86.7266C434.766 86.375 434.102 85.9844 433.594 85.5547C433.125 85.0859 432.773 84.6172 432.539 84.1484C431.992 83.1719 431.699 81.9219 431.66 80.3984C431.621 78.8359 431.68 77.293 431.836 75.7695C431.992 74.207 432.168 72.7812 432.363 71.4922C432.559 70.2031 432.617 69.3242 432.539 68.8555C432.461 68.5039 432.344 68.1133 432.188 67.6836C432.031 67.332 431.836 66.9414 431.602 66.5117C431.367 66.043 431.035 65.5547 430.605 65.0469ZM461.602 63.9336C462.344 63.9727 463.008 63.9922 463.594 63.9922C464.219 63.9531 464.746 63.9141 465.176 63.875C465.684 63.8359 466.133 63.7969 466.523 63.7578C467.109 63.6797 467.715 63.582 468.34 63.4648C468.887 63.3867 469.453 63.2891 470.039 63.1719C470.664 63.0156 471.27 62.8398 471.855 62.6445C471.621 63.2305 471.426 63.7383 471.27 64.168C471.113 64.5977 470.996 64.9687 470.918 65.2812C470.801 65.6328 470.742 65.9258 470.742 66.1602C470.703 66.4336 470.684 66.7656 470.684 67.1562C470.645 67.8203 470.645 68.8945 470.684 70.3789C472.715 68.6211 474.414 67.2539 475.781 66.2773C477.188 65.3008 478.301 64.5391 479.121 63.9922C480.098 63.3672 480.859 62.957 481.406 62.7617C482.852 62.5273 484.121 62.8594 485.215 63.7578C485.684 64.1484 486.133 64.6758 486.562 65.3398C486.992 65.9648 487.363 66.8047 487.676 67.8594C487.988 68.9141 488.223 70.1836 488.379 71.668C488.535 73.1133 488.555 74.8516 488.438 76.8828C487.617 76.9609 486.875 77.0391 486.211 77.1172C485.586 77.1953 485.059 77.2539 484.629 77.293C484.121 77.3711 483.652 77.4102 483.223 77.4102L481.641 77.5859C481.094 77.6641 480.41 77.7422 479.59 77.8203C478.809 77.8594 477.852 77.9375 476.719 78.0547C478.359 76.7266 479.414 75.5742 479.883 74.5977C480.391 73.582 480.605 72.7422 480.527 72.0781C480.449 71.3359 480.098 70.6914 479.473 70.1445C478.73 69.7148 477.93 69.5586 477.07 69.6758C476.328 69.7539 475.469 70.0859 474.492 70.6719C473.516 71.2578 472.48 72.3516 471.387 73.9531C471.465 76.4531 471.543 78.5234 471.621 80.1641C471.738 81.8047 471.836 83.1328 471.914 84.1484C472.031 85.3203 472.129 86.2383 472.207 86.9023C472.324 87.4883 472.559 88.1133 472.91 88.7773C473.184 89.3242 473.574 89.9297 474.082 90.5937C474.59 91.2578 475.254 91.9219 476.074 92.5859C474.355 92.5078 472.949 92.5078 471.855 92.5859C471.191 92.625 470.605 92.6641 470.098 92.7031C469.551 92.7812 468.965 92.8594 468.34 92.9375C467.793 93.0156 467.148 93.0937 466.406 93.1719C465.703 93.2891 464.922 93.4062 464.062 93.5234C464.375 93.0937 464.629 92.5859 464.824 92C465.02 91.4531 465.176 90.9258 465.293 90.418C465.449 89.832 465.566 89.2266 465.645 88.6016C465.684 88.0547 465.703 87.2344 465.703 86.1406C465.742 85.0469 465.723 83.8164 465.645 82.4492C465.605 81.043 465.547 79.5977 465.469 78.1133C465.391 76.5898 465.293 75.1641 465.176 73.8359C465.059 72.5078 464.922 71.3555 464.766 70.3789C464.648 69.3633 464.512 68.6602 464.355 68.2695C464.16 67.8008 463.926 67.332 463.652 66.8633C463.418 66.4336 463.125 65.9844 462.773 65.5156C462.422 65.0078 462.031 64.4805 461.602 63.9336ZM506.602 65.75C507.617 65.75 508.672 65.9453 509.766 66.3359C510.859 66.6875 511.914 67.1562 512.93 67.7422C513.945 68.2891 514.863 68.8945 515.684 69.5586C516.543 70.1836 517.246 70.7891 517.793 71.375C518.77 72.4297 519.434 73.8555 519.785 75.6523C520.176 77.4102 520.254 79.2266 520.02 81.1016C519.785 82.9375 519.238 84.6758 518.379 86.3164C517.52 87.957 516.328 89.168 514.805 89.9492C513.711 90.4961 512.637 90.9258 511.582 91.2383C510.527 91.5508 509.512 91.7852 508.535 91.9414C507.559 92.0977 506.641 92.1758 505.781 92.1758C504.922 92.1758 504.18 92.1562 503.555 92.1172C502.383 92.0391 501.152 91.6289 499.863 90.8867C498.613 90.1445 497.422 89.2266 496.289 88.1328C495.195 87.0391 494.258 85.8477 493.477 84.5586C492.695 83.2305 492.227 81.9805 492.07 80.8086C491.836 79.207 491.797 77.5273 491.953 75.7695C492.109 74.0117 492.676 72.3906 493.652 70.9062C494.668 69.4219 496.191 68.1914 498.223 67.2148C500.293 66.2383 503.086 65.75 506.602 65.75ZM504.668 88.4844C505.098 88.5625 505.684 88.4648 506.426 88.1914C507.168 87.8789 507.891 87.3906 508.594 86.7266C509.336 86.0625 509.98 85.2227 510.527 84.207C511.113 83.1523 511.465 81.8828 511.582 80.3984C511.699 78.9531 511.699 77.625 511.582 76.4141C511.504 75.2031 511.328 74.1484 511.055 73.25C510.781 72.3125 510.469 71.5508 510.117 70.9648C509.766 70.3789 509.395 69.9687 509.004 69.7344C508.34 69.3828 507.539 69.1094 506.602 68.9141C505.664 68.6797 504.863 68.7187 504.199 69.0312C503.887 69.1875 503.496 69.5195 503.027 70.0273C502.559 70.5352 502.09 71.1797 501.621 71.9609C501.152 72.7031 500.723 73.5625 500.332 74.5391C499.98 75.5156 499.727 76.5312 499.57 77.5859C499.414 78.6406 499.375 79.7734 499.453 80.9844C499.57 82.1953 499.824 83.3477 500.215 84.4414C500.605 85.4961 501.152 86.4141 501.855 87.1953C502.598 87.9375 503.535 88.3672 504.668 88.4844ZM523.125 65.0469C524.141 65.2422 525.02 65.3984 525.762 65.5156C526.543 65.5937 527.207 65.6719 527.754 65.75C528.379 65.8281 528.926 65.8867 529.395 65.9258C529.863 65.9648 530.41 66.0039 531.035 66.043C532.09 66.082 533.574 66.082 535.488 66.043C534.355 65.9648 533.457 66.2578 532.793 66.9219C532.168 67.5469 531.699 68.2695 531.387 69.0898C530.996 70.0664 530.781 71.1992 530.742 72.4883C530.664 74.207 530.703 75.7695 530.859 77.1758C531.055 78.543 531.387 79.7148 531.855 80.6914C532.363 81.6289 533.027 82.332 533.848 82.8008C534.668 83.2305 535.723 83.3477 537.012 83.1523C538.301 82.957 539.277 82.5078 539.941 81.8047C540.645 81.0625 541.152 80.1641 541.465 79.1094C541.777 78.0156 541.953 76.7852 541.992 75.418C542.07 74.0508 542.129 72.625 542.168 71.1406C542.168 69.6562 542.148 68.6016 542.109 67.9766C542.109 67.3125 542.09 66.8828 542.051 66.6875C542.012 66.4922 541.953 66.4141 541.875 66.4531C541.797 66.4531 541.699 66.3555 541.582 66.1602C541.504 66.0039 541.387 65.8477 541.23 65.6914C541.113 65.5352 540.957 65.3594 540.762 65.1641C540.566 64.9297 540.352 64.6953 540.117 64.4609C541.133 64.5 542.031 64.5391 542.812 64.5781C543.633 64.5781 544.316 64.5977 544.863 64.6367C545.488 64.6758 546.035 64.7148 546.504 64.7539C546.934 64.793 547.5 64.8516 548.203 64.9297C548.789 65.0078 549.551 65.0859 550.488 65.1641C551.426 65.2422 552.539 65.3594 553.828 65.5156C552.93 65.7109 552.207 66.0039 551.66 66.3945C551.113 66.7852 550.684 67.1758 550.371 67.5664C550.02 67.9961 549.766 68.4648 549.609 68.9727C549.492 69.6367 549.492 70.6523 549.609 72.0195C549.688 73.2305 549.883 74.8906 550.195 77C550.508 79.1094 550.996 81.8828 551.66 85.3203L547.031 88.0742L546.094 80.2812C544.961 82.1953 543.75 83.6797 542.461 84.7344C541.211 85.75 540.039 86.4922 538.945 86.9609C537.656 87.5078 536.406 87.8203 535.195 87.8984C533.594 87.8984 532.207 87.8008 531.035 87.6055C529.902 87.3711 528.926 87.0781 528.105 86.7266C527.285 86.375 526.621 85.9844 526.113 85.5547C525.645 85.0859 525.293 84.6172 525.059 84.1484C524.512 83.1719 524.219 81.9219 524.18 80.3984C524.141 78.8359 524.199 77.293 524.355 75.7695C524.512 74.207 524.688 72.7812 524.883 71.4922C525.078 70.2031 525.137 69.3242 525.059 68.8555C524.98 68.5039 524.863 68.1133 524.707 67.6836C524.551 67.332 524.355 66.9414 524.121 66.5117C523.887 66.043 523.555 65.5547 523.125 65.0469ZM580.547 58.543C580.195 59.4023 579.883 60.1836 579.609 60.8867C579.375 61.5898 579.16 62.2148 578.965 62.7617C578.77 63.3867 578.594 63.9336 578.438 64.4023C578.281 64.9492 578.105 65.5742 577.91 66.2773C577.715 66.9023 577.461 67.6836 577.148 68.6211C576.875 69.5195 576.543 70.5937 576.152 71.8437C575.84 69.9687 575.273 68.4844 574.453 67.3906C573.633 66.2578 572.793 65.3789 571.934 64.7539C570.918 64.0508 569.824 63.543 568.652 63.2305C566.543 62.8789 565.02 62.918 564.082 63.3477C563.145 63.7773 562.52 64.3242 562.207 64.9883C562.051 65.2617 561.875 65.6133 561.68 66.043C561.523 66.4336 561.387 66.8437 561.27 67.2734C561.191 67.7031 561.172 68.1328 561.211 68.5625C561.25 68.9922 561.426 69.3437 561.738 69.6172C561.934 69.8125 562.441 70.0859 563.262 70.4375C564.082 70.75 565.059 71.1211 566.191 71.5508C567.363 71.9414 568.594 72.3711 569.883 72.8398C571.211 73.3086 572.461 73.7773 573.633 74.2461C574.805 74.7148 575.82 75.1836 576.68 75.6523C577.539 76.1211 578.105 76.5508 578.379 76.9414C578.613 77.332 578.867 77.8594 579.141 78.5234C579.453 79.1484 579.668 79.8516 579.785 80.6328C579.941 81.375 579.98 82.1562 579.902 82.9766C579.863 83.7578 579.648 84.5391 579.258 85.3203C578.867 86.1016 578.242 86.8242 577.383 87.4883C576.562 88.1523 575.449 88.6992 574.043 89.1289C572.402 89.6367 570.82 89.7734 569.297 89.5391C567.773 89.3047 566.367 88.9531 565.078 88.4844C563.828 88.0156 562.734 87.5664 561.797 87.1367C560.859 86.668 560.195 86.4727 559.805 86.5508C559.375 86.6289 558.887 86.8437 558.34 87.1953C557.793 87.5469 557.266 87.918 556.758 88.3086C556.289 88.6602 555.879 88.9922 555.527 89.3047C555.176 89.5781 555 89.6758 555 89.5977C555 89.5195 555.059 89.2852 555.176 88.8945C555.332 88.5039 555.488 88.0352 555.645 87.4883C555.84 86.9023 556.016 86.2773 556.172 85.6133C556.367 84.9102 556.504 84.2461 556.582 83.6211C556.66 83.1133 556.758 82.4883 556.875 81.7461C556.953 81.082 557.051 80.2812 557.168 79.3437C557.324 78.3672 557.5 77.1953 557.695 75.8281C557.891 76.8437 558.164 77.7227 558.516 78.4648C558.906 79.207 559.277 79.8516 559.629 80.3984C560.059 81.0234 560.469 81.5508 560.859 81.9805C561.445 82.5273 562.129 83.0352 562.91 83.5039C563.73 83.9727 564.551 84.3828 565.371 84.7344C566.191 85.0469 566.973 85.2422 567.715 85.3203C568.457 85.3984 569.082 85.3203 569.59 85.0859C570.098 84.8516 570.527 84.4219 570.879 83.7969C571.27 83.1719 571.543 82.4883 571.699 81.7461C571.855 81.0039 571.914 80.3008 571.875 79.6367C571.836 78.9336 571.66 78.3672 571.348 77.9375C571.113 77.6641 570.566 77.3125 569.707 76.8828C568.887 76.4531 567.891 75.9844 566.719 75.4766C565.586 74.9687 564.375 74.4414 563.086 73.8945C561.836 73.3477 560.645 72.8008 559.512 72.2539C558.418 71.668 557.5 71.1211 556.758 70.6133C556.055 70.0664 555.664 69.5781 555.586 69.1484C555.508 68.5234 555.449 67.8398 555.41 67.0977C555.371 66.3164 555.41 65.5547 555.527 64.8125C555.684 64.0312 555.957 63.2891 556.348 62.5859C556.777 61.8828 557.402 61.2969 558.223 60.8281C558.77 60.5156 559.492 60.2812 560.391 60.125C561.289 59.9687 562.285 59.8906 563.379 59.8906C564.473 59.8516 565.605 59.8906 566.777 60.0078C567.949 60.0859 569.062 60.2031 570.117 60.3594C571.211 60.4766 572.188 60.6328 573.047 60.8281C573.945 61.0234 574.629 61.1992 575.098 61.3555C575.645 61.5508 576.23 61.5703 576.855 61.4141C577.402 61.2969 577.988 61.043 578.613 60.6523C579.238 60.2617 579.883 59.5586 580.547 58.543ZM594.668 61.707C593.965 61.8242 593.262 61.9414 592.559 62.0586C591.855 62.1758 591.23 62.2734 590.684 62.3516C590.02 62.4687 589.395 62.5664 588.809 62.6445C588.223 62.7617 587.578 62.8594 586.875 62.9375C586.289 63.0156 585.605 63.0937 584.824 63.1719C584.043 63.2109 583.223 63.25 582.363 63.2891C582.441 62.9766 582.52 62.5859 582.598 62.1172C582.715 61.6484 582.812 61.1992 582.891 60.7695C583.008 60.2617 583.105 59.7344 583.184 59.1875C583.301 58.4844 583.379 57.8984 583.418 57.4297C583.496 56.9609 583.555 56.5508 583.594 56.1992C583.672 55.8477 583.77 55.5352 583.887 55.2617C584.004 54.9883 584.219 54.7148 584.531 54.4414C585 54.0117 585.586 53.543 586.289 53.0352C587.031 52.4883 587.91 52.0195 588.926 51.6289C589.98 51.1992 591.191 50.8672 592.559 50.6328C593.965 50.3984 595.586 50.3398 597.422 50.457C599.258 50.5742 600.781 50.7695 601.992 51.043C603.203 51.3164 604.219 51.668 605.039 52.0977C605.859 52.4883 606.523 52.957 607.031 53.5039C607.578 54.0117 608.086 54.6172 608.555 55.3203C609.023 56.0234 609.473 56.8828 609.902 57.8984C610.371 58.875 610.762 59.9102 611.074 61.0039C611.387 62.0977 611.562 63.1914 611.602 64.2852C611.68 65.3789 611.582 66.3555 611.309 67.2148C610.957 67.918 610.273 68.6211 609.258 69.3242C608.359 69.9492 607.07 70.6523 605.391 71.4336C603.75 72.2148 601.465 72.9961 598.535 73.7773C598.613 74.5195 598.73 75.1836 598.887 75.7695C599.043 76.3555 599.199 76.8633 599.355 77.293C599.512 77.8008 599.707 78.25 599.941 78.6406C600.176 78.9922 600.391 79.3828 600.586 79.8125C600.781 80.1641 600.977 80.5547 601.172 80.9844C601.406 81.375 601.621 81.7461 601.816 82.0977L590.332 83.5039C590.684 83.0742 590.957 82.625 591.152 82.1562C591.387 81.6484 591.562 81.1797 591.68 80.75C591.836 80.2422 591.914 79.7344 591.914 79.2266C591.914 78.6797 591.875 78.0156 591.797 77.2344C591.719 76.5703 591.602 75.7305 591.445 74.7148C591.328 73.6602 591.113 72.4297 590.801 71.0234C592.637 70.9453 594.141 70.75 595.312 70.4375C596.523 70.0859 597.5 69.7344 598.242 69.3828C599.102 68.9531 599.766 68.5039 600.234 68.0352C600.586 67.6055 600.879 66.9414 601.113 66.043C601.387 65.1055 601.562 64.0703 601.641 62.9375C601.758 61.8047 601.758 60.6523 601.641 59.4805C601.523 58.2695 601.25 57.1953 600.82 56.2578C600.391 55.3203 599.785 54.5781 599.004 54.0312C598.262 53.4453 597.305 53.1914 596.133 53.2695C594.375 53.4258 593.047 53.7578 592.148 54.2656C591.25 54.7344 590.625 55.2617 590.273 55.8477C589.922 56.4336 589.746 57.0195 589.746 57.6055C589.785 58.1914 589.844 58.6211 589.922 58.8945C589.961 59.168 590.176 59.4414 590.566 59.7148C590.879 59.9883 591.348 60.2812 591.973 60.5937C592.637 60.9062 593.535 61.2773 594.668 61.707ZM595.781 85.5547C597.188 85.3594 598.281 85.5937 599.062 86.2578C599.883 86.9219 600.273 87.8398 600.234 89.0117C600.195 89.5977 600.078 90.0664 599.883 90.418C599.688 90.7695 599.414 91.043 599.062 91.2383C598.75 91.3945 598.359 91.5312 597.891 91.6484C597.461 91.7266 596.953 91.8047 596.367 91.8828C595.781 92 595.215 91.9805 594.668 91.8242C594.121 91.6289 593.633 91.3555 593.203 91.0039C592.773 90.6523 592.422 90.2617 592.148 89.832C591.914 89.4023 591.797 88.9727 591.797 88.543C591.797 88.0742 591.914 87.6836 592.148 87.3711C592.422 87.0195 592.754 86.7266 593.145 86.4922C593.574 86.2187 594.004 86.0234 594.434 85.9062C594.902 85.75 595.352 85.6328 595.781 85.5547Z" fill="#C49A2E"/>
<path d="M93.1005 13L103 3.10051L112.9 13L103 22.8995L93.1005 13Z" fill="#5F563F"/>
<path d="M152.101 27L162 17.1005L171.9 27L162 36.8995L152.101 27Z" fill="#5F563F"/>
<path d="M74.1005 30L84 20.1005L93.8995 30L84 39.8995L74.1005 30Z" fill="#5F563F"/>
<path d="M281.101 13L291 3.1005L300.9 13L291 22.8995L281.101 13Z" fill="#5F563F"/>
<path d="M257.101 30L267 20.1005L276.9 30L267 39.8995L257.101 30Z" fill="#5F563F"/>
<path d="M241.101 13L251 3.10051L260.9 13L251 22.8995L241.101 13Z" fill="#5F563F"/>
<path d="M222.101 34L232 24.1005L241.9 34L232 43.8995L222.101 34Z" fill="#5F563F"/>
<path d="M201.101 13L211 3.10051L220.9 13L211 22.8995L201.101 13Z" fill="#5F563F"/>
<path d="M187.101 37L197 27.1005L206.9 37L197 46.8995L187.101 37Z" fill="#5F563F"/>
<path d="M173.101 16L183 6.1005L192.9 16L183 25.8995L173.101 16Z" fill="#5F563F"/>
<path d="M133.101 13L143 3.10051L152.9 13L143 22.8995L133.101 13Z" fill="#5F563F"/>
<path d="M113.101 27L123 17.1005L132.9 27L123 36.8995L113.101 27Z" fill="#5F563F"/>
<path d="M307.1 113L317 103.101L326.899 113L317 122.899L307.1 113Z" fill="#5F563F"/>
<path d="M366.1 127L376 117.101L385.899 127L376 136.899L366.1 127Z" fill="#5F563F"/>
<path d="M288.1 130L298 120.101L307.899 130L298 139.899L288.1 130Z" fill="#5F563F"/>
<path d="M495.1 113L505 103.101L514.899 113L505 122.899L495.1 113Z" fill="#5F563F"/>
<path d="M471.101 130L481 120.101L490.9 130L481 139.899L471.101 130Z" fill="#5F563F"/>
<path d="M455.101 113L465 103.101L474.9 113L465 122.899L455.101 113Z" fill="#5F563F"/>
<path d="M436.101 134L446 124.101L455.9 134L446 143.899L436.101 134Z" fill="#5F563F"/>
<path d="M415.1 113L425 103.101L434.899 113L425 122.899L415.1 113Z" fill="#5F563F"/>
<path d="M401.1 137L411 127.101L420.899 137L411 146.899L401.1 137Z" fill="#5F563F"/>
<path d="M387.1 116L397 106.101L406.899 116L397 125.899L387.1 116Z" fill="#5F563F"/>
<path d="M347.1 113L357 103.101L366.899 113L357 122.899L347.1 113Z" fill="#5F563F"/>
<path d="M327.1 127L337 117.101L346.899 127L337 136.899L327.1 127Z" fill="#5F563F"/>
<path d="M486.1 34L496 24.1005L505.899 34L496 43.8995L486.1 34Z" fill="#5F563F"/>
<path d="M427.1 20L437 10.1005L446.899 20L437 29.8995L427.1 20Z" fill="#5F563F"/>
<path d="M505.1 17L515 7.1005L524.899 17L515 26.8995L505.1 17Z" fill="#5F563F"/>
<path d="M298.1 34L308 24.1005L317.899 34L308 43.8995L298.1 34Z" fill="#5F563F"/>
<path d="M322.1 17L332 7.1005L341.899 17L332 26.8995L322.1 17Z" fill="#5F563F"/>
<path d="M338.1 34L348 24.1005L357.899 34L348 43.8995L338.1 34Z" fill="#5F563F"/>
<path d="M357.1 13L367 3.1005L376.899 13L367 22.8995L357.1 13Z" fill="#5F563F"/>
<path d="M378.1 34L388 24.1005L397.899 34L388 43.8995L378.1 34Z" fill="#5F563F"/>
<path d="M392.1 10L402 0.100501L411.899 10L402 19.8995L392.1 10Z" fill="#5F563F"/>
<path d="M406.1 31L416 21.1005L425.899 31L416 40.8995L406.1 31Z" fill="#5F563F"/>
<path d="M446.1 34L456 24.1005L465.899 34L456 43.8995L446.1 34Z" fill="#5F563F"/>
<path d="M466.1 20L476 10.1005L485.899 20L476 29.8995L466.1 20Z" fill="#5F563F"/>
<path d="M244.1 132L254 122.1L263.899 132L254 141.899L244.1 132Z" fill="#5F563F"/>
<path d="M185.101 118L195 108.1L204.9 118L195 127.899L185.101 118Z" fill="#5F563F"/>
<path d="M263.101 115L273 105.1L282.9 115L273 124.899L263.101 115Z" fill="#5F563F"/>
<path d="M56.1005 132L66 122.1L75.8995 132L66 141.899L56.1005 132Z" fill="#5F563F"/>
<path d="M80.1005 115L90 105.1L99.8995 115L90 124.899L80.1005 115Z" fill="#5F563F"/>
<path d="M96.1005 132L106 122.1L115.9 132L106 141.899L96.1005 132Z" fill="#5F563F"/>
<path d="M115.101 111L125 101.1L134.9 111L125 120.899L115.101 111Z" fill="#5F563F"/>
<path d="M136.101 132L146 122.1L155.9 132L146 141.899L136.101 132Z" fill="#5F563F"/>
<path d="M150.101 108L160 98.1005L169.9 108L160 117.899L150.101 108Z" fill="#5F563F"/>
<path d="M164.101 129L174 119.1L183.9 129L174 138.899L164.101 129Z" fill="#5F563F"/>
<path d="M204.101 132L214 122.1L223.9 132L214 141.899L204.101 132Z" fill="#5F563F"/>
<path d="M224.101 118L234 108.1L243.9 118L234 127.899L224.101 118Z" fill="#5F563F"/>
</svg>
